<svg width="16" height="10" viewBox="0 0 16 10" fill="none" xmlns="http://www.w3.org/2000/svg">
<path d="M13.0436 1.29688L13.6043 0.798748C13.4688 0.646269 13.2771 0.555539 13.0733 0.547463C12.8695 0.539387 12.6712 0.614663 12.5241 0.755945L13.0436 1.29688ZM10.2308 2.95842C9.93206 3.24534 9.92248 3.72012 10.2094 4.01886C10.4963 4.31761 10.9711 4.3272 11.2698 4.04028L10.2308 2.95842ZM14.4396 3.99748C14.7147 4.30713 15.1888 4.33514 15.4985 4.06004C15.8081 3.78493 15.8361 3.31088 15.561 3.00122L14.4396 3.99748ZM2.08887 6.5546C1.80541 6.25257 1.33078 6.23751 1.02875 6.52097C0.726712 6.80443 0.711654 7.27906 0.995112 7.5811L2.08887 6.5546ZM6.40795 9.91724C10.4787 9.91724 13.7936 6.65328 13.7936 2.6086H12.2936C12.2936 5.8084 9.66678 8.41724 6.40795 8.41724V9.91724ZM13.7936 2.6086V1.29688H12.2936V2.6086H13.7936ZM12.5241 0.755945L10.2308 2.95842L11.2698 4.04028L13.5631 1.83781L12.5241 0.755945ZM12.4829 1.795L14.4396 3.99748L15.561 3.00122L13.6043 0.798748L12.4829 1.795ZM0.995112 7.5811C2.34385 9.01822 4.2712 9.91724 6.40795 9.91724V8.41724C4.69966 8.41724 3.16389 7.70006 2.08887 6.5546L0.995112 7.5811Z" fill="#8A8A8A"/>
</svg>
