<svg width="16" height="10" viewBox="0 0 16 10" fill="none" xmlns="http://www.w3.org/2000/svg">
<path d="M2.95155 7.55864H2.20155V7.55864L2.95155 7.55864ZM2.95155 8.87037L2.39007 9.3676C2.52536 9.52037 2.71705 9.61142 2.92094 9.61975C3.12483 9.62807 3.32331 9.55296 3.4706 9.41174L2.95155 8.87037ZM5.76905 7.20804C6.06805 6.92137 6.07804 6.4466 5.79137 6.14761C5.50471 5.84862 5.02994 5.83863 4.73095 6.1253L5.76905 7.20804ZM1.56148 6.16943C1.28686 5.85934 0.812863 5.83057 0.502767 6.10519C0.19267 6.3798 0.163906 6.8538 0.438521 7.1639L1.56148 6.16943ZM13.8826 3.6343C14.1639 3.93837 14.6384 3.95683 14.9425 3.67555C15.2465 3.39427 15.265 2.91976 14.9837 2.6157L13.8826 3.6343ZM9.56192 0.25C5.50246 0.25 2.20155 3.51665 2.20155 7.55864H3.70155C3.70155 4.35616 6.31976 1.75 9.56192 1.75V0.25ZM2.20155 7.55864L2.20155 8.87037L3.70155 8.87037L3.70155 7.55864L2.20155 7.55864ZM3.4706 9.41174L5.76905 7.20804L4.73095 6.1253L2.4325 8.329L3.4706 9.41174ZM3.51303 8.37314L1.56148 6.16943L0.438521 7.1639L2.39007 9.3676L3.51303 8.37314ZM14.9837 2.6157C13.6387 1.16173 11.7064 0.25 9.56192 0.25V1.75C11.2731 1.75 12.811 2.47586 13.8826 3.6343L14.9837 2.6157Z" fill="#8A8A8A"/>
</svg>
